<svg width="128" height="128" viewBox="0 0 128 128" fill="none" xmlns="http://www.w3.org/2000/svg">
<path d="M0 25.6C0 11.4615 11.4615 0 25.6 0H102.4C116.538 0 128 11.4615 128 25.6V102.4C128 116.538 116.538 128 102.4 128H25.6C11.4615 128 0 116.538 0 102.4V25.6Z" fill="#232941"/>
<path d="M0 25.6C0 11.4615 11.4615 0 25.6 0H102.4C116.538 0 128 11.4615 128 25.6V102.4C128 116.538 116.538 128 102.4 128H25.6C11.4615 128 0 116.538 0 102.4V25.6Z" fill="url(#paint0_linear_166_122)" fill-opacity="0.2"/>
<path d="M60.1894 20.4844C76.5742 20.4845 88.9794 32.9109 88.7706 48.42C92.2542 48.8816 95.683 49.7521 98.8925 51.01C105.959 53.7797 112.259 58.5481 115.554 65.2937C116.329 66.8817 115.67 68.7976 114.082 69.5731C112.495 70.3486 110.578 69.6898 109.802 68.1019C107.407 63.1976 102.605 59.3393 96.5569 56.9687C90.5242 54.6044 83.5454 53.8459 77.2606 54.8944C75.5174 55.1851 73.8689 54.0076 73.5781 52.2644C73.2875 50.5213 74.4644 48.8727 76.2075 48.5819C78.2225 48.2457 80.2883 48.0674 82.37 48.0387C82.355 36.3364 73.0271 26.8845 60.1894 26.8844C48.0537 26.8844 38.2369 36.6828 38.2369 48.7481V48.7494C38.2359 50.8307 38.533 52.8981 39.115 54.8887C40.2184 55.2739 41.1792 55.6935 41.9287 56.0556C42.5916 56.3759 43.2743 56.7125 43.8908 57.1207C45.3318 58.0749 45.7577 60.01 44.8362 61.4844C43.8997 62.9827 41.926 63.4379 40.4275 62.5019L40.3787 62.4731C40.329 62.4436 40.247 62.3955 40.1356 62.3331C39.9119 62.2077 39.5731 62.0259 39.1444 61.8187C38.2998 61.4107 37.1497 60.9273 35.8687 60.5756C34.9028 60.3946 33.9225 60.3019 32.94 60.3006C24.2767 60.3058 17.275 67.3003 17.275 75.9019C17.275 84.5046 24.2781 91.498 32.9412 91.4981H36.0844C37.8516 91.4981 39.2842 92.931 39.2844 94.6981C39.2844 96.4654 37.8517 97.8981 36.0844 97.8981H32.9412C20.7661 97.898 10.875 88.0618 10.875 75.9019C10.875 63.9518 20.4274 54.2467 32.3112 53.91C31.9961 52.2105 31.8361 50.4819 31.8369 48.7462C31.8378 33.1257 44.541 20.4844 60.1894 20.4844Z" fill="white"/>
<path d="M59.1365 70.638C62.2928 65.4472 69.7675 65.2796 73.1533 70.3237L85.5415 88.7805C86.5263 90.2479 86.1351 92.2356 84.6677 93.2205C83.2003 94.2054 81.2126 93.8142 80.2277 92.3468L67.8396 73.8905C67.0583 72.7265 65.333 72.7651 64.6046 73.963L53.1771 92.7568C52.3991 94.0363 53.3202 95.6743 54.8177 95.6743H72.6446C74.4118 95.6743 75.8444 97.1071 75.8446 98.8743C75.8446 100.642 74.4119 102.074 72.6446 102.074H54.8177C48.3287 102.074 44.337 94.9763 47.7083 89.4318L59.1365 70.638Z" fill="#C50000"/>
<path d="M105.759 75.9844C112.056 75.9845 116.071 82.7106 113.082 88.2538L103.584 105.864C100.573 111.449 92.6699 111.743 89.2518 106.398L86.2205 101.658C85.2685 100.169 85.7035 98.1896 87.1924 97.2375C88.6812 96.2855 90.6602 96.7206 91.6124 98.2094L94.6436 102.95C95.4325 104.183 97.2562 104.115 97.9511 102.827L107.449 85.2156C108.138 83.9365 107.212 82.3845 105.759 82.3844H85.0305C83.5267 82.3844 82.6067 84.0346 83.3974 85.3138L85.6036 88.8831C86.5328 90.3863 86.0674 92.3582 84.5643 93.2875C83.0611 94.2167 81.0892 93.7513 80.1599 92.2481L77.9536 88.6794C74.5269 83.1365 78.5139 75.9844 85.0305 75.9844H105.759Z" fill="#DC0000"/>
<defs>
<linearGradient id="paint0_linear_166_122" x1="64" y1="0" x2="64" y2="128" gradientUnits="userSpaceOnUse">
<stop stop-color="#00DC82"/>
<stop offset="1" stop-color="#666666" stop-opacity="0"/>
</linearGradient>
</defs>
</svg>
